<svg width="22" height="22" viewBox="0 0 22 22" fill="none" xmlns="http://www.w3.org/2000/svg">
<path d="M18.2416 12.375H3.75825C2.38325 12.375 1.83325 12.9617 1.83325 14.4192V18.1225C1.83325 19.58 2.38325 20.1667 3.75825 20.1667H18.2416C19.6166 20.1667 20.1666 19.58 20.1666 18.1225V14.4192C20.1666 12.9617 19.6166 12.375 18.2416 12.375Z" stroke="white" stroke-width="1.5" stroke-linecap="round" stroke-linejoin="round"/>
<path d="M11.8249 1.83334H3.75825C2.38325 1.83334 1.83325 2.42001 1.83325 3.87751V7.58084C1.83325 9.03834 2.38325 9.62501 3.75825 9.62501H11.8249C13.1999 9.62501 13.7499 9.03834 13.7499 7.58084V3.87751C13.7499 2.42001 13.1999 1.83334 11.8249 1.83334Z" stroke="white" stroke-width="1.5" stroke-linecap="round" stroke-linejoin="round"/>
</svg>
