<svg width="22" height="22" viewBox="0 0 22 22" fill="none" xmlns="http://www.w3.org/2000/svg">
<path d="M16.3075 20.8542H5.69254C3.18087 20.8542 1.14587 18.81 1.14587 16.2983V9.50582C1.14587 8.25915 1.91587 6.69165 2.90587 5.92165L7.84671 2.07165C9.33171 0.916653 11.7059 0.861653 13.2459 1.94332L18.9109 5.91249C20.0017 6.67332 20.8542 8.30499 20.8542 9.63415V16.3075C20.8542 18.81 18.8192 20.8542 16.3075 20.8542ZM8.69004 3.15332L3.74921 7.00332C3.09837 7.51665 2.52087 8.68082 2.52087 9.50582V16.2983C2.52087 18.0492 3.94171 19.4792 5.69254 19.4792H16.3075C18.0584 19.4792 19.4792 18.0583 19.4792 16.3075V9.63415C19.4792 8.75415 18.8467 7.53499 18.1225 7.03999L12.4575 3.07082C11.4125 2.33749 9.68921 2.37415 8.69004 3.15332Z" fill="white"/>
<path d="M11 17.1875C10.6242 17.1875 10.3125 16.8758 10.3125 16.5V13.75C10.3125 13.3742 10.6242 13.0625 11 13.0625C11.3758 13.0625 11.6875 13.3742 11.6875 13.75V16.5C11.6875 16.8758 11.3758 17.1875 11 17.1875Z" fill="white"/>
</svg>
