<svg width="22" height="22" viewBox="0 0 22 22" fill="none" xmlns="http://www.w3.org/2000/svg">
<path d="M11.1466 9.96418C11.0549 9.95501 10.9449 9.95501 10.8441 9.96418C8.66243 9.89084 6.92993 8.10334 6.92993 5.90334C6.92993 3.65751 8.74493 1.83334 10.9999 1.83334C13.2458 1.83334 15.0699 3.65751 15.0699 5.90334C15.0608 8.10334 13.3283 9.89084 11.1466 9.96418Z" stroke="white" stroke-width="1.5" stroke-linecap="round" stroke-linejoin="round"/>
<path d="M6.56341 13.3467C4.34507 14.8317 4.34507 17.2517 6.56341 18.7275C9.08424 20.4142 13.2184 20.4142 15.7392 18.7275C17.9576 17.2425 17.9576 14.8225 15.7392 13.3467C13.2276 11.6692 9.09341 11.6692 6.56341 13.3467Z" stroke="white" stroke-width="1.5" stroke-linecap="round" stroke-linejoin="round"/>
</svg>
