<svg width="57" height="57" viewBox="0 0 57 57" fill="none" xmlns="http://www.w3.org/2000/svg">
<path d="M8.3125 44.5312C7.33875 44.5312 6.53125 43.7238 6.53125 42.75V16.625C6.53125 6.15125 9.71375 2.96875 20.1875 2.96875H36.8125C47.2863 2.96875 50.4688 6.15125 50.4688 16.625V40.375C50.4688 40.755 50.4688 41.1112 50.445 41.4912C50.3737 42.465 49.495 43.225 48.545 43.1538C47.5713 43.0825 46.8112 42.2275 46.8825 41.2538C46.9062 40.9688 46.9062 40.66 46.9062 40.375V16.625C46.9062 8.14625 45.315 6.53125 36.8125 6.53125H20.1875C11.685 6.53125 10.0938 8.14625 10.0938 16.625V42.75C10.0938 43.7238 9.28625 44.5312 8.3125 44.5312Z" fill="white"/>
<path d="M40.375 54.0312H16.625C11.0675 54.0312 6.53125 49.495 6.53125 43.9375V42.3938C6.53125 37.6675 10.3787 33.8438 15.0813 33.8438H48.6875C49.6613 33.8438 50.4688 34.6513 50.4688 35.625V43.9375C50.4688 49.495 45.9325 54.0312 40.375 54.0312ZM15.0813 37.4062C12.3263 37.4062 10.0938 39.6388 10.0938 42.3938V43.9375C10.0938 47.5475 13.015 50.4688 16.625 50.4688H40.375C43.985 50.4688 46.9062 47.5475 46.9062 43.9375V37.4062H15.0813Z" fill="white"/>
<path d="M38 18.4062H19C18.0263 18.4062 17.2188 17.5987 17.2188 16.625C17.2188 15.6513 18.0263 14.8438 19 14.8438H38C38.9737 14.8438 39.7812 15.6513 39.7812 16.625C39.7812 17.5987 38.9737 18.4062 38 18.4062Z" fill="white"/>
<path d="M30.875 26.7188H19C18.0263 26.7188 17.2188 25.9112 17.2188 24.9375C17.2188 23.9638 18.0263 23.1562 19 23.1562H30.875C31.8488 23.1562 32.6562 23.9638 32.6562 24.9375C32.6562 25.9112 31.8488 26.7188 30.875 26.7188Z" fill="white"/>
</svg>
