<svg width="57" height="57" viewBox="0 0 57 57" fill="none" xmlns="http://www.w3.org/2000/svg">
<path d="M33.25 54.0312H23.75C10.8538 54.0312 5.34375 48.5212 5.34375 35.625V21.375C5.34375 8.47875 10.8538 2.96875 23.75 2.96875H33.25C46.1462 2.96875 51.6562 8.47875 51.6562 21.375V35.625C51.6562 48.5212 46.1462 54.0312 33.25 54.0312ZM23.75 6.53125C12.8012 6.53125 8.90625 10.4262 8.90625 21.375V35.625C8.90625 46.5737 12.8012 50.4688 23.75 50.4688H33.25C44.1987 50.4688 48.0938 46.5737 48.0938 35.625V21.375C48.0938 10.4262 44.1987 6.53125 33.25 6.53125H23.75Z" fill="white"/>
<path d="M35.625 25.7213H21.375C18.43 25.7213 16.0312 23.3225 16.0312 20.3775V18.0025C16.0312 15.0575 18.43 12.6588 21.375 12.6588H35.625C38.57 12.6588 40.9688 15.0575 40.9688 18.0025V20.3775C40.9688 23.3225 38.57 25.7213 35.625 25.7213ZM21.375 16.2213C20.4012 16.2213 19.5938 17.0288 19.5938 18.0025V20.3775C19.5938 21.3513 20.4012 22.1588 21.375 22.1588H35.625C36.5987 22.1588 37.4062 21.3513 37.4062 20.3775V18.0025C37.4062 17.0288 36.5987 16.2213 35.625 16.2213H21.375Z" fill="white"/>
<path d="M19.3561 35.435C19.0474 35.435 18.7386 35.3638 18.4536 35.245C18.1686 35.1263 17.9074 34.96 17.6936 34.7463C17.2424 34.295 17.0049 33.7013 17.0049 33.06C17.0049 32.7513 17.0524 32.4425 17.1711 32.1575C17.2899 31.8488 17.4561 31.6113 17.6936 31.3738C17.7886 31.2788 17.9074 31.16 18.0499 31.0888C18.1686 30.9938 18.3111 30.9225 18.4536 30.875C18.5961 30.8038 18.7624 30.7563 18.9049 30.7325C19.6649 30.5663 20.4961 30.8275 21.0424 31.3738C21.2561 31.5875 21.4461 31.8488 21.5649 32.1575C21.6836 32.4425 21.7549 32.7513 21.7549 33.06C21.7549 33.7013 21.4936 34.295 21.0424 34.7463C20.5911 35.1975 19.9974 35.435 19.3561 35.435Z" fill="white"/>
<path d="M28.8799 35.435C28.2386 35.435 27.6449 35.1975 27.1936 34.7462C26.7424 34.295 26.5049 33.7012 26.5049 33.06C26.5049 32.7512 26.5524 32.4425 26.6711 32.1575C26.7899 31.8487 26.9561 31.6112 27.1936 31.3737C27.2886 31.2787 27.4074 31.16 27.5499 31.0887C27.6686 30.9937 27.8111 30.9225 27.9536 30.875C28.0961 30.8037 28.2624 30.7562 28.4049 30.7325C28.8561 30.6375 29.3311 30.685 29.7824 30.875C30.0674 30.9937 30.3286 31.16 30.5424 31.3737C30.7561 31.6112 30.9461 31.8487 31.0649 32.1575C31.1836 32.4425 31.2549 32.7512 31.2549 33.06C31.2549 33.7012 30.9936 34.295 30.5424 34.7462C30.0911 35.1975 29.4974 35.435 28.8799 35.435Z" fill="white"/>
<path d="M38.3561 35.435C38.0474 35.435 37.7386 35.3637 37.4536 35.245C37.1686 35.1262 36.9074 34.96 36.6936 34.7462C36.4561 34.5087 36.2899 34.2475 36.1711 33.9625C36.0524 33.6775 36.0049 33.3687 36.0049 33.06C36.0049 32.7512 36.0524 32.4425 36.1711 32.1575C36.2899 31.8487 36.4561 31.6112 36.6936 31.3737C37.5724 30.495 39.1636 30.495 40.0424 31.3737C40.4936 31.825 40.7549 32.4425 40.7549 33.06C40.7549 33.7012 40.4936 34.295 40.0424 34.7462C39.6149 35.1737 39.0211 35.435 38.3561 35.435Z" fill="white"/>
<path d="M19.38 44.935C18.7387 44.935 18.145 44.6975 17.6937 44.2463C17.2425 43.795 16.9812 43.2013 16.9812 42.56C16.9812 41.9425 17.2425 41.325 17.6937 40.8738C17.7887 40.7788 17.9312 40.66 18.05 40.5888C18.1687 40.4938 18.3112 40.4225 18.4537 40.375C18.5962 40.3038 18.7625 40.2563 18.905 40.2325C19.6887 40.09 20.4962 40.3275 21.0424 40.8738C21.1612 40.9925 21.2562 41.1113 21.3512 41.23C21.4224 41.3725 21.4937 41.515 21.5649 41.6575C21.6124 41.8 21.66 41.9425 21.7075 42.085C21.7312 42.2513 21.7549 42.3938 21.7549 42.56C21.7549 43.2013 21.4937 43.795 21.0424 44.2463C20.5912 44.6975 19.9974 44.935 19.38 44.935Z" fill="white"/>
<path d="M28.88 44.935C28.2387 44.935 27.645 44.6975 27.1937 44.2463C26.7425 43.795 26.4812 43.2013 26.4812 42.56C26.4812 41.9425 26.7425 41.325 27.1937 40.8738C27.74 40.3275 28.5712 40.09 29.3312 40.2325C29.4737 40.2563 29.64 40.3038 29.7825 40.375C29.925 40.4225 30.0675 40.4938 30.1862 40.5888C30.305 40.66 30.4237 40.7788 30.5425 40.8738C30.9937 41.325 31.2312 41.9425 31.2312 42.56C31.2312 43.2013 30.9937 43.795 30.5425 44.2463C30.0912 44.6975 29.4975 44.935 28.88 44.935Z" fill="white"/>
<path d="M38.3561 44.935C37.7386 44.935 37.1449 44.6975 36.6936 44.2462C36.2424 43.795 36.0049 43.2012 36.0049 42.56C36.0049 41.9425 36.2424 41.325 36.6936 40.8737C36.9074 40.66 37.1686 40.4937 37.4536 40.375C38.3324 40.0187 39.4011 40.2087 40.0424 40.8737C40.4936 41.325 40.7311 41.9425 40.7311 42.56C40.7311 43.2012 40.4936 43.795 40.0424 44.2462C39.8286 44.46 39.5674 44.6262 39.2824 44.745C38.9974 44.8637 38.6886 44.935 38.3561 44.935Z" fill="white"/>
</svg>
