<svg width="50" height="50" viewBox="0 0 50 50" fill="none" xmlns="http://www.w3.org/2000/svg">
<g clip-path="url(#clip0_310_3505)">
<path d="M46.6666 3.31755C42.8916 -0.447029 36.2499 -2.43036 24.9645 5.41755C13.6895 -2.42828 7.03738 -0.447029 3.27072 3.31755C-0.495951 7.08214 -2.47928 13.7301 5.37072 25.0009C-2.47928 36.2717 -0.493868 42.9176 3.27072 46.6842C4.30927 47.7545 5.55496 48.6021 6.9318 49.1751C8.30865 49.7482 9.7878 50.0349 11.279 50.0176C14.8207 50.0176 19.3145 48.5592 24.9645 44.6134C30.6166 48.5488 35.1061 50.0196 38.6499 50.0196C40.1412 50.0376 41.6206 49.7512 42.9975 49.1781C44.3744 48.605 45.62 47.7571 46.6582 46.6863C50.4166 42.9176 52.4103 36.2717 44.5582 25.0009C52.4103 13.7301 50.4166 7.08422 46.6666 3.31755ZM38.4832 6.26755C39.1756 6.24529 39.8652 6.36442 40.51 6.61767C41.1547 6.87092 41.7411 7.25297 42.2332 7.74047C45.0561 10.5613 43.452 15.2405 40.5186 19.8238C39.0478 18.1134 37.4207 16.3342 35.5186 14.4405C33.6166 12.5467 31.8436 10.9217 30.1332 9.45089C32.5823 7.66305 35.4655 6.56385 38.4832 6.26755ZM36.702 25.0009C34.6853 27.4405 32.6228 29.6134 31.102 31.1342C29.5811 32.6551 27.4041 34.7176 24.9645 36.7321C22.5249 34.7176 20.3499 32.6571 18.8291 31.1342C17.3082 29.6113 15.2436 27.4405 13.229 25.0009C15.2436 22.5613 17.3061 20.3884 18.8291 18.8676C20.352 17.3467 22.5228 15.2821 24.9645 13.2676C27.4061 15.2821 29.5791 17.3446 31.102 18.8676C32.6249 20.3905 34.6853 22.5613 36.702 25.0009ZM7.69572 7.74047C8.18778 7.25287 8.77412 6.87076 9.4189 6.6175C10.0637 6.36425 10.7533 6.24517 11.4457 6.26755C14.4625 6.56511 17.3445 7.66579 19.7915 9.45505C18.0791 10.9259 16.2999 12.5509 14.4061 14.4446C12.5124 16.3384 10.8811 18.1259 9.4103 19.828C6.47905 15.2363 4.8728 10.5613 7.69572 7.74047ZM7.69572 42.2613C4.8728 39.4405 6.47905 34.7613 9.4103 30.178C10.8811 31.8884 12.5082 33.6676 14.4103 35.5613C16.3124 37.4551 18.0811 39.103 19.7832 40.5613C15.1874 43.4821 10.5165 45.0801 7.69572 42.2613ZM42.2332 42.2613C39.4103 45.0821 34.7332 43.4821 30.1499 40.5571C31.8541 39.0988 33.6416 37.4426 35.527 35.5571C37.4124 33.6717 39.0478 31.8842 40.527 30.1738C43.452 34.7655 45.0561 39.4405 42.2332 42.2613Z" fill="white"/>
<path d="M25.0002 29.1673C27.3013 29.1673 29.1668 27.3018 29.1668 25.0006C29.1668 22.6995 27.3013 20.834 25.0002 20.834C22.699 20.834 20.8335 22.6995 20.8335 25.0006C20.8335 27.3018 22.699 29.1673 25.0002 29.1673Z" fill="white"/>
</g>
<defs>
<clipPath id="clip0_310_3505">
<rect width="50" height="50" fill="white"/>
</clipPath>
</defs>
</svg>
