<svg width="25" height="25" viewBox="0 0 25 25" fill="none" xmlns="http://www.w3.org/2000/svg">
<path d="M12.4999 23.6979C6.32284 23.6979 1.302 18.6771 1.302 12.5C1.302 6.3229 6.32284 1.30206 12.4999 1.30206C18.677 1.30206 23.6978 6.3229 23.6978 12.5C23.6978 18.6771 18.677 23.6979 12.4999 23.6979ZM12.4999 2.86456C7.18742 2.86456 2.8645 7.18748 2.8645 12.5C2.8645 17.8125 7.18742 22.1354 12.4999 22.1354C17.8124 22.1354 22.1353 17.8125 22.1353 12.5C22.1353 7.18748 17.8124 2.86456 12.4999 2.86456Z" fill="#888888"/>
<path d="M16.3646 16.5938C16.2292 16.5938 16.0937 16.5625 15.9687 16.4792L12.7396 14.5521C11.9375 14.0729 11.3438 13.0209 11.3438 12.0938V7.82294C11.3438 7.39585 11.6979 7.04169 12.125 7.04169C12.5521 7.04169 12.9062 7.39585 12.9062 7.82294V12.0938C12.9062 12.4688 13.2187 13.0209 13.5417 13.2084L16.7708 15.1354C17.1458 15.3542 17.2604 15.8334 17.0417 16.2084C16.8854 16.4584 16.625 16.5938 16.3646 16.5938Z" fill="#888888"/>
</svg>
