<svg width="25" height="25" viewBox="0 0 25 25" fill="none" xmlns="http://www.w3.org/2000/svg">
<path d="M15.6249 23.6979H9.37492C3.71867 23.6979 1.302 21.2812 1.302 15.625V9.37498C1.302 3.71873 3.71867 1.30206 9.37492 1.30206H15.6249C21.2812 1.30206 23.6978 3.71873 23.6978 9.37498V15.625C23.6978 21.2812 21.2812 23.6979 15.6249 23.6979ZM9.37492 2.86456C4.57283 2.86456 2.8645 4.5729 2.8645 9.37498V15.625C2.8645 20.4271 4.57283 22.1354 9.37492 22.1354H15.6249C20.427 22.1354 22.1353 20.4271 22.1353 15.625V9.37498C22.1353 4.5729 20.427 2.86456 15.6249 2.86456H9.37492Z" fill="#888888"/>
<path d="M11.2083 17.0521C10.7708 17.0521 10.3646 16.9479 10 16.7396C9.16667 16.2604 8.6875 15.2812 8.6875 14.0416V10.9583C8.6875 9.72915 9.16667 8.73956 10 8.2604C10.8333 7.78123 11.9167 7.85415 12.9896 8.47915L15.6667 10.0208C16.7292 10.6354 17.3438 11.5416 17.3438 12.5C17.3438 13.4583 16.7292 14.3646 15.6667 14.9791L12.9896 16.5208C12.3854 16.875 11.7708 17.0521 11.2083 17.0521ZM11.2188 9.5104C11.0521 9.5104 10.9062 9.54165 10.7917 9.61456C10.4583 9.81248 10.2604 10.3021 10.2604 10.9583V14.0416C10.2604 14.6979 10.4479 15.1875 10.7917 15.3854C11.125 15.5833 11.6458 15.5 12.2187 15.1666L14.8958 13.625C15.4688 13.2916 15.7917 12.8854 15.7917 12.5C15.7917 12.1146 15.4688 11.6979 14.8958 11.375L12.2187 9.83331C11.8437 9.61456 11.5 9.5104 11.2188 9.5104Z" fill="#888888"/>
</svg>
