<svg width="57" height="57" viewBox="0 0 57 57" fill="none" xmlns="http://www.w3.org/2000/svg">
<path d="M28.5 52.44C27.7875 52.44 27.075 52.2738 26.4812 51.9413C22.04 49.5188 14.2262 46.9538 9.33375 46.3125L8.645 46.2175C5.53375 45.8375 2.96875 42.9163 2.96875 39.7575V11.0675C2.96875 9.19127 3.705 7.48127 5.05875 6.24627C6.4125 5.01127 8.17 4.41752 10.0225 4.58377C15.2475 4.98752 23.1325 7.60002 27.5975 10.4025L28.1675 10.735C28.3337 10.83 28.69 10.83 28.8325 10.7588L29.2125 10.5213C33.6775 7.71877 41.5625 5.05877 46.8112 4.60752C46.8587 4.60752 47.0487 4.60752 47.0962 4.60752C48.83 4.44127 50.6113 5.05877 51.9413 6.29377C53.295 7.52877 54.0312 9.23877 54.0312 11.115V39.7813C54.0312 42.9638 51.4663 45.8613 48.3312 46.2413L47.5475 46.3363C42.655 46.9775 34.8175 49.5663 30.4713 51.965C29.9012 52.2975 29.2125 52.44 28.5 52.44ZM9.4525 8.12252C8.6925 8.12252 8.00375 8.38377 7.4575 8.88252C6.86375 9.42877 6.53125 10.2125 6.53125 11.0675V39.7575C6.53125 41.1588 7.7425 42.5125 9.09625 42.7025L9.80875 42.7975C15.1525 43.51 23.3463 46.1938 28.0963 48.7825C28.31 48.8775 28.6188 48.9013 28.7375 48.8538C33.4875 46.2175 41.7287 43.51 47.0962 42.7975L47.9038 42.7025C49.2575 42.5363 50.4688 41.1588 50.4688 39.7575V11.0913C50.4688 10.2125 50.1363 9.45252 49.5425 8.88252C48.925 8.33627 48.1413 8.07502 47.2625 8.12252C47.215 8.12252 47.025 8.12252 46.9775 8.12252C42.4412 8.52627 35.1262 10.9725 31.1362 13.4663L30.7563 13.7275C29.45 14.535 27.5975 14.535 26.3388 13.7513L25.7688 13.4188C21.7075 10.925 14.3925 8.50252 9.7375 8.12252C9.6425 8.12252 9.5475 8.12252 9.4525 8.12252Z" fill="white"/>
<path d="M28.5 50.445C27.5263 50.445 26.7188 49.6375 26.7188 48.6637V13.0387C26.7188 12.065 27.5263 11.2575 28.5 11.2575C29.4737 11.2575 30.2812 12.065 30.2812 13.0387V48.6637C30.2812 49.6612 29.4737 50.445 28.5 50.445Z" fill="white"/>
<path d="M18.4062 21.945H13.0625C12.0888 21.945 11.2812 21.1375 11.2812 20.1637C11.2812 19.19 12.0888 18.3825 13.0625 18.3825H18.4062C19.38 18.3825 20.1875 19.19 20.1875 20.1637C20.1875 21.1375 19.38 21.945 18.4062 21.945Z" fill="white"/>
<path d="M20.1875 29.07H13.0625C12.0888 29.07 11.2812 28.2625 11.2812 27.2887C11.2812 26.315 12.0888 25.5075 13.0625 25.5075H20.1875C21.1613 25.5075 21.9688 26.315 21.9688 27.2887C21.9688 28.2625 21.1613 29.07 20.1875 29.07Z" fill="white"/>
</svg>
